# xmcd CD database file
#
# Track frame offsets:
#	150
#	14027
#	28717
#	45532
#	58944
#	73451
#	88483
#	103545
#	151952
#	192859
#	235453
#	261206
#
# Disc length: 3850 seconds
#
# Revision: 0
# Processed by: cddbd v1.5.2PL0 Copyright (c) Steve Scherf et al.
# Submitted via: CDex 1.51
#
DISCID=b10f080c
DTITLE=Jazz - Jazz capes 2000 01
DYEAR=2001
DGENRE=Jazz
TTITLE0=01 Potato Head Blues 1927 L. Armstrong
TTITLE1=02 The Mooche 1928 Duke Ellington
TTITLE2=03 Love is here to Stay 1957 Billie Holiday
TTITLE3=04 Koko 2611 1945 Charlie Parker
TTITLE4=05 Billie's Bounce Charlie Parker
TTITLE5=06 Now's the Time 26111945 Charlie Parker
TTITLE6=07 Moon Dreams 1950 Gil Evans
TTITLE7=08 Blue Train 1957 John Coltrane
TTITLE8=09 So what 1959 Miles Davis
TTITLE9=10 Flamenco Sketches 1959 Miles Davis
TTITLE10=11 Free Jazz 1960extrait Ornette Coleman
TTITLE11=12 The Divinal Lord 1996 Steve Coleman
EXTD=YEAR: 2001
EXTT0=
EXTT1=
EXTT2=
EXTT3=
EXTT4=
EXTT5=
EXTT6=
EXTT7=
EXTT8=
EXTT9=
EXTT10=
EXTT11=
PLAYORDER=
